<svg width="278.14501953125px" height="74.017578125px" xmlns="http://www.w3.org/2000/svg" viewBox="110.927490234375 37.9912109375 278.14501953125 74.017578125" style="background: rgba(0, 0, 0, 0);" preserveAspectRatio="xMidYMid"><defs><linearGradient id="editing-gradient-gradient" x1="0" x2="1" y1="0.5" y2="0.5" gradientUnits="objectBoundingBox"><stop offset="0" stop-color="#f0f"></stop><stop offset="1" stop-color="#0ff"></stop></linearGradient></defs><g><g transform="translate(155.3524978607893, 90.65499973297119)"><path d="M13.26-2.55L13.26-2.55L13.26-2.55Q13.26-4.93 14.21-9.69L14.21-9.69L9.18-9.69L7.31 0L0.20 0L4.52-22.44L11.70-22.44L9.72-12.41L14.76-12.41L16.63-22.44L23.80-22.44L23.80-22.44Q23.32-19.92 22.71-17.10L22.71-17.10L21.56-11.56L21.56-11.56Q20.26-5.10 20.26-2.28L20.26-2.28L20.26-2.28Q20.26-1.12 20.64-0.48L20.64-0.48L20.64-0.48Q18.94 0.68 16.95 0.68L16.95 0.68L16.95 0.68Q14.96 0.68 14.11-0.27L14.11-0.27L14.11-0.27Q13.26-1.22 13.26-2.55ZM35.53-1.43L35.53-1.43L35.53-1.43Q33.90 0.68 29.85 0.68L29.85 0.68L29.85 0.68Q27.74 0.68 26.21-0.60L26.21-0.60L26.21-0.60Q24.68-1.87 24.68-3.71L24.68-3.71L24.68-3.71Q24.68-4.73 24.79-5.24L24.79-5.24L27.06-17.34L33.97-18.02L31.48-4.90L31.48-4.90Q31.35-4.15 31.35-3.71L31.35-3.71L31.35-3.71Q31.35-1.73 32.54-1.73L32.54-1.73L32.54-1.73Q33.86-1.73 34.82-3.54L34.82-3.54L34.82-3.54Q35.12-4.11 35.26-4.86L35.26-4.86L37.67-17.34L44.37-18.02L41.85-4.76L41.85-4.76Q41.75-4.25 41.75-3.71L41.75-3.71L41.75-3.71Q41.75-3.16 42.06-2.57L42.06-2.57L42.06-2.57Q42.36-1.97 43.35-1.84L43.35-1.84L43.35-1.84Q43.15-1.02 42.43-0.48L42.43-0.48L42.43-0.48Q40.94 0.68 39.32 0.68L39.32 0.68L39.32 0.68Q37.71 0.68 36.75 0.10L36.75 0.10L36.75 0.10Q35.80-0.48 35.53-1.43ZM57.02-3.84L57.02-3.84L57.02-3.84Q55.25-2.01 52.02-2.01L52.02-2.01L52.02-2.01Q47.97-2.01 47.12-4.96L47.12-4.96L47.12-4.96Q46.85-5.85 46.85-6.83L46.85-6.83L46.85-6.83Q46.85-7.82 47.06-8.84L47.06-8.84L48.65-17.34L55.56-18.02L53.69-8.13L53.69-8.13Q53.62-7.68 53.52-7.21L53.52-7.21L53.52-7.21Q53.41-6.73 53.41-6.24L53.41-6.24L53.41-6.24Q53.41-5.75 53.58-5.42L53.58-5.42L53.58-5.42Q53.75-5.10 53.99-4.90L53.99-4.90L53.99-4.90Q54.40-4.62 55.13-4.62L55.13-4.62L55.13-4.62Q55.86-4.62 56.49-5.51L56.49-5.51L56.49-5.51Q57.12-6.39 57.43-7.92L57.43-7.92L59.30-17.34L65.99-18.02L63.44-4.66L63.44-4.66Q62.19 1.87 59.60 4.45L59.60 4.45L59.60 4.45Q58.28 5.78 56.56 6.31L56.56 6.31L56.56 6.31Q54.84 6.83 52.63 6.83L52.63 6.83L52.63 6.83Q49.06 6.83 47.02 5.71L47.02 5.71L47.02 5.71Q44.98 4.59 44.98 2.72L44.98 2.72L44.98 2.72Q44.98 1.33 46.04 0.53L46.04 0.53L46.04 0.53Q47.09-0.27 48.72-0.27L48.72-0.27L48.72-0.27Q50.15-0.27 51.24 0.34L51.24 0.34L51.24 0.34Q51.88 0.71 52.19 1.19L52.19 1.19L52.19 1.19Q51.41 1.87 51.41 2.99L51.41 2.99L51.41 2.99Q51.41 4.49 52.77 4.49L52.77 4.49L52.77 4.49Q55.01 4.49 56.30-0.68L56.30-0.68L56.30-0.68Q56.68-2.21 57.02-3.84ZM81.60 0.68L81.60 0.68L81.60 0.68Q77.49 0.68 77.49-2.52L77.49-2.52L77.49-2.52Q77.52-3.40 77.79-4.90L77.79-4.90L78.40-8.02L78.40-8.02Q79.32-12.44 79.32-13.43L79.32-13.43L79.32-13.43Q79.32-15.40 78.17-15.40L78.17-15.40L78.17-15.40Q76.23-15.40 75.21-10.34L75.21-10.34L73.20 0L66.37 0.68L69.90-17.37L75.48-18.02L74.94-14.69L74.94-14.69Q76.53-18.02 81.43-18.02L81.43-18.02L81.43-18.02Q83.81-18.02 84.81-17.02L84.81-17.02L84.81-17.02Q85.82-16.01 85.82-13.77L85.82-13.77L85.82-13.77Q85.82-11.66 84.73-6.73L84.73-6.73L84.73-6.73Q84.22-4.52 84.22-3.69L84.22-3.69L84.22-3.69Q84.22-2.86 84.68-2.38L84.68-2.38L84.68-2.38Q85.14-1.90 85.82-1.84L85.82-1.84L85.82-1.84Q85.48-0.68 84.30 0L84.30 0L84.30 0Q83.13 0.68 81.60 0.68ZM105.64-3.77L105.64-3.77L105.64-3.77Q105.64-2.28 107.17-1.84L107.17-1.84L107.17-1.84Q106.79-0.58 105.33 0.10L105.33 0.10L105.33 0.10Q104.11 0.68 102.77 0.68L102.77 0.68L102.77 0.68Q101.42 0.68 100.72 0.32L100.72 0.32L100.72 0.32Q100.03-0.03 99.65-0.61L99.65-0.61L99.65-0.61Q99.04-1.50 99.04-3.16L99.04-3.16L99.04-3.16Q99.04-4.15 99.59-6.87L99.59-6.87L100.06-9.45L100.06-9.45Q100.64-12.41 100.64-13.50L100.64-13.50L100.64-13.50Q100.64-15.40 99.59-15.40L99.59-15.40L99.59-15.40Q98.26-15.40 97.41-13.46L97.41-13.46L97.41-13.46Q97.07-12.72 96.83-11.59L96.83-11.59L94.52 0L87.69 0.68L92.48-23.80L99.31-24.48L99.04-23.12L99.04-23.12Q98.09-17.88 97.27-16.12L97.27-16.12L97.27-16.12Q99.18-18.02 102.68-18.02L102.68-18.02L102.68-18.02Q106.39-18.02 107.07-15.57L107.07-15.57L107.07-15.57Q107.30-14.79 107.30-14.11L107.30-14.11L107.30-14.11Q107.30-13.43 107.25-12.90L107.25-12.90L107.25-12.90Q107.20-12.38 107.03-11.42L107.03-11.42L106.59-8.98L105.81-5.13L105.81-5.13Q105.64-4.35 105.64-3.77ZM112.64-16.56L112.64-16.56L112.64-16.56Q111.49-17.44 111.49-19.33L111.49-19.33L111.49-19.33Q111.49-21.22 112.73-22.20L112.73-22.20L112.73-22.20Q113.97-23.19 116.11-23.19L116.11-23.19L116.11-23.19Q117.47-23.19 120.70-22.71L120.70-22.71L123.01-22.37L123.01-22.37Q124.17-22.24 125.38-22.24L125.38-22.24L125.38-22.24Q126.58-22.24 127.40-22.75L127.40-22.75L127.40-22.75Q128.62-21.66 128.62-20.09L128.62-20.09L128.62-20.09Q128.62-18.53 127.23-17.41L127.23-17.41L127.23-17.41Q125.80-16.22 123.96-16.22L123.96-16.22L123.96-16.22Q123.08-16.22 121.65-16.46L121.65-16.46L121.65-16.46Q119.99-11.22 119.99-7.58L119.99-7.58L119.99-7.58Q119.99-3.94 121.82-2.04L121.82-2.04L121.82-2.04Q120.97-0.51 119.71 0.09L119.71 0.09L119.71 0.09Q118.46 0.68 116.57 0.68L116.57 0.68L116.57 0.68Q114.68 0.68 113.51-0.36L113.51-0.36L113.51-0.36Q112.34-1.39 112.34-3.54L112.34-3.54L112.34-3.54Q112.34-6.02 113.70-10.10L113.70-10.10L113.70-10.10Q115.06-14.14 117.10-17.24L117.10-17.24L117.10-17.24Q116.11-17.34 115.09-17.34L115.09-17.34L115.09-17.34Q112.98-17.34 112.64-16.56ZM144.64-3.77L144.64-3.77L144.64-3.77Q144.64-2.28 146.17-1.84L146.17-1.84L146.17-1.84Q145.79-0.58 144.33 0.10L144.33 0.10L144.33 0.10Q143.11 0.68 141.76 0.68L141.76 0.68L141.76 0.68Q140.42 0.68 139.72 0.32L139.72 0.32L139.72 0.32Q139.03-0.03 138.65-0.61L138.65-0.61L138.65-0.61Q138.04-1.50 138.04-3.16L138.04-3.16L138.04-3.16Q138.04-4.15 138.58-6.87L138.58-6.87L139.06-9.45L139.06-9.45Q139.64-12.41 139.64-13.50L139.64-13.50L139.64-13.50Q139.64-15.40 138.58-15.40L138.58-15.40L138.58-15.40Q137.26-15.40 136.41-13.46L136.41-13.46L136.41-13.46Q136.07-12.72 135.83-11.59L135.83-11.59L133.52 0L126.68 0.68L131.48-23.80L138.31-24.48L138.04-23.12L138.04-23.12Q137.09-17.88 136.27-16.12L136.27-16.12L136.27-16.12Q138.18-18.02 141.68-18.02L141.68-18.02L141.68-18.02Q145.38-18.02 146.06-15.57L146.06-15.57L146.06-15.57Q146.30-14.79 146.30-14.11L146.30-14.11L146.30-14.11Q146.30-13.43 146.25-12.90L146.25-12.90L146.25-12.90Q146.20-12.38 146.03-11.42L146.03-11.42L145.59-8.98L144.81-5.13L144.81-5.13Q144.64-4.35 144.64-3.77ZM150.40-1.02L150.40-1.02L150.40-1.02Q149.60-1.90 149.24-3.30L149.24-3.30L149.24-3.30Q148.89-4.69 148.89-6.97L148.89-6.97L148.89-6.97Q148.89-9.25 149.67-11.32L149.67-11.32L149.67-11.32Q150.45-13.40 151.88-14.89L151.88-14.89L151.88-14.89Q154.80-18.02 159.63-18.02L159.63-18.02L159.63-18.02Q161.36-18.02 162.62-17.44L162.62-17.44L168.44-18.02L165.92-4.76L165.92-4.76Q165.82-4.35 165.82-3.60L165.82-3.60L165.82-3.60Q165.82-2.86 166.28-2.38L166.28-2.38L166.28-2.38Q166.74-1.90 167.42-1.84L167.42-1.84L167.42-1.84Q167.08-0.68 165.83 0L165.83 0L165.83 0Q164.59 0.68 163.20 0.68L163.20 0.68L163.20 0.68Q161.81 0.68 160.87 0.15L160.87 0.15L160.87 0.15Q159.94-0.37 159.66-1.26L159.66-1.26L159.66-1.26Q159.12-0.41 157.96 0.14L157.96 0.14L157.96 0.14Q156.81 0.68 155.26 0.68L155.26 0.68L155.26 0.68Q153.71 0.68 152.46 0.27L152.46 0.27L152.46 0.27Q151.20-0.14 150.40-1.02ZM157.57-14.82L157.57-14.82L157.57-14.82Q157.18-14.21 156.84-13.18L156.84-13.18L156.84-13.18Q156.50-12.14 155.94-9.37L155.94-9.37L155.94-9.37Q155.38-6.60 155.38-4.62L155.38-4.62L155.38-4.62Q155.38-2.65 155.69-2.07L155.69-2.07L155.69-2.07Q155.99-1.50 156.54-1.50L156.54-1.50L156.54-1.50Q157.62-1.50 158.42-2.53L158.42-2.53L158.42-2.53Q159.22-3.57 159.53-5.41L159.53-5.41L161.33-15.37L161.33-15.37Q160.62-15.98 159.78-15.98L159.78-15.98L159.78-15.98Q158.95-15.98 158.46-15.71L158.46-15.71L158.46-15.71Q157.96-15.44 157.57-14.82ZM177.55 0.68L177.55 0.68L177.55 0.68Q170.07 0.68 170.07-6.36L170.07-6.36L170.07-6.36Q170.07-11.36 172.82-14.59L172.82-14.59L172.82-14.59Q175.75-18.02 180.81-18.02L180.81-18.02L180.81-18.02Q184.48-18.02 186.35-16.32L186.35-16.32L186.35-16.32Q188.22-14.62 188.22-11.05L188.22-11.05L188.22-11.05Q188.22-5.61 185.30-2.45L185.30-2.45L185.30-2.45Q182.44 0.68 177.55 0.68ZM178.43-14.11L178.43-14.11L178.43-14.11Q178.02-13.19 177.70-11.82L177.70-11.82L177.70-11.82Q177.38-10.44 176.97-8.26L176.97-8.26L176.97-8.26Q176.56-6.09 176.56-3.40L176.56-3.40L176.56-3.40Q176.56-2.52 176.85-1.94L176.85-1.94L176.85-1.94Q177.14-1.36 177.92-1.36L177.92-1.36L177.92-1.36Q178.70-1.36 179.20-1.73L179.20-1.73L179.20-1.73Q179.69-2.11 180.06-2.99L180.06-2.99L180.06-2.99Q180.74-4.56 181.29-7.46L181.29-7.46L181.29-7.46Q181.83-10.37 181.88-11.63L181.88-11.63L181.88-11.63Q181.93-12.89 181.93-13.82L181.93-13.82L181.93-13.82Q181.93-14.76 181.66-15.37L181.66-15.37L181.66-15.37Q181.39-15.98 180.63-15.98L180.63-15.98L180.63-15.98Q179.86-15.98 179.35-15.50L179.35-15.50L179.35-15.50Q178.84-15.03 178.43-14.11Z" fill="url(#editing-gradient-gradient)"></path></g></g><style>text {
  font-size: 64px;
  font-family: Arial Black;
  dominant-baseline: central;
  text-anchor: middle;
}</style></svg>